# xmcd
#
# Track frame offsets: 
#        150
#        16615
#        33010
#        54892
#        62770
#        79287
#        87112
#        100037
#        113055
#        127982
#        139112
#        152440
#        162375
#        182665
#
# Disc length: 2988 seconds
#
# Revision: 0
# Processed by: cddbd v1.5.1PL0 Copyright (c) Steve Scherf et al.
# Submitted via: ExactAudioCopy v0.95b2
#
DISCID=9b0baa0e
DTITLE=The Spoils - Goodnight Victoria
DYEAR=2005
DGENRE=Country
TTITLE0=14 Days
TTITLE1=Come Down
TTITLE2=Warmington St.
TTITLE3=Music For Olde Time Magic Tricks
TTITLE4=Saturday Night
TTITLE5=Vauderville Tears
TTITLE6=Cuban Heels
TTITLE7=Louie's Last Waltz
TTITLE8=Seventeen
TTITLE9=Ingenue
TTITLE10=El Mariachi
TTITLE11=Uncle Vania
TTITLE12=Goodnight Victoria
TTITLE13=Glitter Town
EXTD=
EXTT0=
EXTT1=
EXTT2=
EXTT3=
EXTT4=
EXTT5=
EXTT6=
EXTT7=
EXTT8=
EXTT9=
EXTT10=
EXTT11=
EXTT12=
EXTT13=
PLAYORDER=
